<?xml version="1.0" encoding="UTF-8" standalone="no"?>
<!DOCTYPE svg PUBLIC "-//W3C//DTD SVG 1.1//EN"
 "http://www.w3.org/Graphics/SVG/1.1/DTD/svg11.dtd">
<!-- Generated by graphviz version 2.40.1 (20161225.0304)
 -->
<!-- Title: G Pages: 1 -->
<svg width="1055pt" height="609pt"
 viewBox="0.00 0.00 1054.70 609.00" xmlns="http://www.w3.org/2000/svg" xmlns:xlink="http://www.w3.org/1999/xlink">
<g id="graph0" class="graph" transform="scale(1 1) rotate(0) translate(4 605)">
<title>G</title>
<polygon fill="#ffffff" stroke="transparent" points="-4,4 -4,-605 1050.6966,-605 1050.6966,4 -4,4"/>
<g id="clust1" class="cluster">
<title>cluster_sencer</title>
<polygon fill="none" stroke="#0000ff" points="8,-516.2 8,-593 724,-593 724,-516.2 8,-516.2"/>
<text text-anchor="middle" x="366" y="-576.4" font-family="Times,serif" font-size="14.00" fill="#000000">传感器</text>
</g>
<g id="clust2" class="cluster">
<title>cluster_rpi</title>
<polygon fill="none" stroke="#a020f0" points="472,-8 472,-408.4 616,-408.4 616,-8 472,-8"/>
<text text-anchor="middle" x="544" y="-391.8" font-family="Times,serif" font-size="14.00" fill="#000000">人机交互终端</text>
</g>
<!-- temp -->
<g id="node1" class="node">
<title>temp</title>
<polygon fill="none" stroke="#000000" points="104.3939,-560.2 15.6061,-560.2 15.6061,-524.2 104.3939,-524.2 104.3939,-560.2"/>
<text text-anchor="middle" x="60" y="-538" font-family="Times,serif" font-size="14.00" fill="#000000">温度传感器</text>
</g>
<!-- can -->
<g id="node10" class="node">
<title>can</title>
<polygon fill="#c0c0c0" stroke="transparent" points="581.9805,-487.2 506.0195,-487.2 506.0195,-451.2 581.9805,-451.2 581.9805,-487.2"/>
<text text-anchor="middle" x="544" y="-465" font-family="Times,serif" font-size="14.00" fill="#000000">CAN总线</text>
</g>
<!-- temp&#45;&gt;can -->
<g id="edge5" class="edge">
<title>temp&#45;&gt;can</title>
<path fill="none" stroke="#000000" d="M93.0061,-524.1432C99.7873,-521.0567 106.9977,-518.2044 114,-516.2 184.7914,-495.9358 399.4526,-479.1378 496.0247,-472.3867"/>
<polygon fill="#000000" stroke="#000000" points="496.3638,-475.8717 506.0981,-471.6891 495.8802,-468.8884 496.3638,-475.8717"/>
</g>
<!-- g -->
<g id="node2" class="node">
<title>g</title>
<polygon fill="none" stroke="#000000" points="251.3743,-560.2 122.6257,-560.2 122.6257,-524.2 251.3743,-524.2 251.3743,-560.2"/>
<text text-anchor="middle" x="187" y="-538" font-family="Times,serif" font-size="14.00" fill="#000000">九轴加速传感器</text>
</g>
<!-- g&#45;&gt;can -->
<g id="edge6" class="edge">
<title>g&#45;&gt;can</title>
<path fill="none" stroke="#000000" d="M233.7397,-524.1674C242.3875,-521.2283 251.4036,-518.4233 260,-516.2 341.5331,-495.1134 438.7829,-481.4225 495.7307,-474.5276"/>
<polygon fill="#000000" stroke="#000000" points="496.3662,-477.9768 505.8823,-473.319 495.5386,-471.0259 496.3662,-477.9768"/>
</g>
<!-- energy -->
<g id="node3" class="node">
<title>energy</title>
<polygon fill="none" stroke="#000000" points="349.1552,-560.2 268.8448,-560.2 268.8448,-524.2 349.1552,-524.2 349.1552,-560.2"/>
<text text-anchor="middle" x="309" y="-538" font-family="Times,serif" font-size="14.00" fill="#000000">能量计</text>
</g>
<!-- energy&#45;&gt;can -->
<g id="edge7" class="edge">
<title>energy&#45;&gt;can</title>
<path fill="none" stroke="#000000" d="M341.0427,-524.1599C346.9091,-521.256 353.0574,-518.465 359,-516.2 404.1452,-498.9927 457.8716,-486.1409 495.763,-478.2646"/>
<polygon fill="#000000" stroke="#000000" points="496.9108,-481.6027 506.0101,-476.1755 495.5124,-474.7438 496.9108,-481.6027"/>
</g>
<!-- speed -->
<g id="node4" class="node">
<title>speed</title>
<polygon fill="none" stroke="#000000" points="476.4418,-560.2 367.5582,-560.2 367.5582,-524.2 476.4418,-524.2 476.4418,-560.2"/>
<text text-anchor="middle" x="422" y="-538" font-family="Times,serif" font-size="14.00" fill="#000000">轮速传感器</text>
</g>
<!-- speed&#45;&gt;can -->
<g id="edge8" class="edge">
<title>speed&#45;&gt;can</title>
<path fill="none" stroke="#000000" d="M452.1573,-524.1551C468.1407,-514.5912 487.9579,-502.7334 505.0882,-492.4833"/>
<polygon fill="#000000" stroke="#000000" points="506.9828,-495.4284 513.7668,-487.2904 503.3885,-489.4216 506.9828,-495.4284"/>
</g>
<!-- youmen -->
<g id="node5" class="node">
<title>youmen</title>
<polygon fill="none" stroke="#000000" points="593.3214,-560.2 494.6786,-560.2 494.6786,-524.2 593.3214,-524.2 593.3214,-560.2"/>
<text text-anchor="middle" x="544" y="-538" font-family="Times,serif" font-size="14.00" fill="#000000">油门传感器</text>
</g>
<!-- youmen&#45;&gt;can -->
<g id="edge9" class="edge">
<title>youmen&#45;&gt;can</title>
<path fill="none" stroke="#000000" d="M544,-524.1551C544,-516.0828 544,-506.3764 544,-497.3817"/>
<polygon fill="#000000" stroke="#000000" points="547.5001,-497.2903 544,-487.2904 540.5001,-497.2904 547.5001,-497.2903"/>
</g>
<!-- shache -->
<g id="node6" class="node">
<title>shache</title>
<polygon fill="none" stroke="#000000" points="716.2675,-560.2 611.7325,-560.2 611.7325,-524.2 716.2675,-524.2 716.2675,-560.2"/>
<text text-anchor="middle" x="664" y="-538" font-family="Times,serif" font-size="14.00" fill="#000000">刹车传感器</text>
</g>
<!-- shache&#45;&gt;can -->
<g id="edge10" class="edge">
<title>shache&#45;&gt;can</title>
<path fill="none" stroke="#000000" d="M634.3371,-524.1551C618.76,-514.679 599.4807,-502.9508 582.7383,-492.7658"/>
<polygon fill="#000000" stroke="#000000" points="584.1,-489.4974 573.7376,-487.2904 580.4619,-495.4778 584.1,-489.4974"/>
</g>
<!-- bms -->
<g id="node7" class="node">
<title>bms</title>
<polygon fill="none" stroke="#0000ff" points="832.4442,-560.2 733.5558,-560.2 733.5558,-524.2 832.4442,-524.2 832.4442,-560.2"/>
<text text-anchor="middle" x="783" y="-538" font-family="Times,serif" font-size="14.00" fill="#000000">电池管理系统</text>
</g>
<!-- bms&#45;&gt;can -->
<g id="edge11" class="edge">
<title>bms&#45;&gt;can</title>
<path fill="none" stroke="#000000" d="M747.3251,-524.1292C740.9765,-521.2621 734.3593,-518.4914 728,-516.2 682.9197,-499.9566 629.7213,-487.0083 592.1519,-478.849"/>
<polygon fill="#000000" stroke="#000000" points="592.5004,-475.3444 581.9896,-476.6759 591.0366,-482.1897 592.5004,-475.3444"/>
</g>
<!-- mcu -->
<g id="node8" class="node">
<title>mcu</title>
<polygon fill="none" stroke="#0000ff" points="931.5552,-560.2 850.4448,-560.2 850.4448,-524.2 931.5552,-524.2 931.5552,-560.2"/>
<text text-anchor="middle" x="891" y="-538" font-family="Times,serif" font-size="14.00" fill="#000000">电机控制器</text>
</g>
<!-- mcu&#45;&gt;can -->
<g id="edge12" class="edge">
<title>mcu&#45;&gt;can</title>
<path fill="none" stroke="#000000" d="M859.9331,-524.0969C853.809,-521.092 847.3191,-518.2817 841,-516.2 756.1042,-488.2328 651.9127,-476.6515 592.2129,-472.0481"/>
<polygon fill="#000000" stroke="#000000" points="592.1847,-468.5366 581.9545,-471.2923 591.6703,-475.5177 592.1847,-468.5366"/>
</g>
<!-- vcu -->
<g id="node9" class="node">
<title>vcu</title>
<polygon fill="none" stroke="#0000ff" points="1046.894,-560.2 949.106,-560.2 949.106,-524.2 1046.894,-524.2 1046.894,-560.2"/>
<text text-anchor="middle" x="998" y="-538" font-family="Times,serif" font-size="14.00" fill="#000000">整车控制器</text>
</g>
<!-- vcu&#45;&gt;can -->
<g id="edge13" class="edge">
<title>vcu&#45;&gt;can</title>
<path fill="none" stroke="#000000" d="M962.7594,-524.0862C955.6994,-521.0439 948.2272,-518.2227 941,-516.2 876.3219,-498.0981 682.5281,-480.5034 591.8143,-472.9954"/>
<polygon fill="#000000" stroke="#000000" points="592.0517,-469.5032 581.7987,-472.1728 591.4787,-476.4797 592.0517,-469.5032"/>
</g>
<!-- can2spi -->
<g id="node11" class="node">
<title>can2spi</title>
<polygon fill="none" stroke="#000000" points="603.1499,-375.6 484.8501,-375.6 484.8501,-339.6 603.1499,-339.6 603.1499,-375.6"/>
<text text-anchor="middle" x="544" y="-353.4" font-family="Times,serif" font-size="14.00" fill="#000000">CAN转SPI模块</text>
</g>
<!-- can&#45;&gt;can2spi -->
<g id="edge14" class="edge">
<title>can&#45;&gt;can2spi</title>
<path fill="none" stroke="#000000" d="M544,-440.7451C544,-423.9518 544,-402.769 544,-385.9875"/>
<polygon fill="#000000" stroke="#000000" points="540.5001,-440.7715 544,-450.7715 547.5001,-440.7716 540.5001,-440.7715"/>
<polygon fill="#000000" stroke="#000000" points="547.5001,-385.6855 544,-375.6856 540.5001,-385.6856 547.5001,-385.6855"/>
<text text-anchor="middle" x="558.7749" y="-420.6" font-family="Times,serif" font-size="14.00" fill="#000000">CAN</text>
</g>
<!-- system -->
<g id="node12" class="node">
<title>system</title>
<polygon fill="none" stroke="#000000" points="607.6951,-213.8 480.3049,-213.8 480.3049,-177.8 607.6951,-177.8 607.6951,-213.8"/>
<text text-anchor="middle" x="544" y="-191.6" font-family="Times,serif" font-size="14.00" fill="#000000">基于django的服务器</text>
</g>
<!-- can2spi&#45;&gt;system -->
<g id="edge1" class="edge">
<title>can2spi&#45;&gt;system</title>
<path fill="none" stroke="#000000" d="M544,-328.9689C544,-299.4622 544,-253.7335 544,-224.2816"/>
<polygon fill="#000000" stroke="#000000" points="540.5001,-329.354 544,-339.354 547.5001,-329.354 540.5001,-329.354"/>
<polygon fill="#000000" stroke="#000000" points="547.5001,-224.2275 544,-214.2276 540.5001,-224.2276 547.5001,-224.2275"/>
<text text-anchor="middle" x="561.8822" y="-280.4" font-family="Times,serif" font-size="14.00" fill="#000000">socket</text>
</g>
<!-- database -->
<g id="node13" class="node">
<title>database</title>
<polygon fill="none" stroke="#000000" points="594.3843,-52 493.6157,-52 493.6157,-16 594.3843,-16 594.3843,-52"/>
<text text-anchor="middle" x="544" y="-29.8" font-family="Times,serif" font-size="14.00" fill="#000000">MySQL数据库</text>
</g>
<!-- system&#45;&gt;database -->
<g id="edge2" class="edge">
<title>system&#45;&gt;database</title>
<path fill="none" stroke="#000000" d="M544,-167.1689C544,-137.6622 544,-91.9335 544,-62.4816"/>
<polygon fill="#000000" stroke="#000000" points="540.5001,-167.554 544,-177.554 547.5001,-167.554 540.5001,-167.554"/>
<polygon fill="#000000" stroke="#000000" points="547.5001,-62.4275 544,-52.4276 540.5001,-62.4276 547.5001,-62.4275"/>
</g>
<!-- remote -->
<g id="node16" class="node">
<title>remote</title>
<polygon fill="#00ff00" stroke="transparent" points="683.6566,-125 624.3434,-125 624.3434,-89 683.6566,-89 683.6566,-125"/>
<text text-anchor="middle" x="654" y="-102.8" font-family="Times,serif" font-size="14.00" fill="#ffffff">笔记本</text>
</g>
<!-- system&#45;&gt;remote -->
<g id="edge15" class="edge">
<title>system&#45;&gt;remote</title>
<path fill="none" stroke="#000000" stroke-dasharray="5,2" d="M574.4766,-171.197C589.7209,-158.8908 608.1257,-144.0331 623.3885,-131.7118"/>
<polygon fill="#000000" stroke="#000000" points="572.1081,-168.6109 566.5256,-177.6157 576.5051,-174.0576 572.1081,-168.6109"/>
<polygon fill="#000000" stroke="#000000" points="625.922,-134.1648 631.5045,-125.16 621.525,-128.718 625.922,-134.1648"/>
<text text-anchor="middle" x="670.0221" y="-147.2" font-family="Times,serif" font-size="14.00" fill="#000000">ssh远程调试, 开发</text>
</g>
<!-- screen -->
<g id="node14" class="node">
<title>screen</title>
<polygon fill="#ffa500" stroke="transparent" points="754.3188,-302.6 623.6812,-302.6 623.6812,-266.6 754.3188,-266.6 754.3188,-302.6"/>
<text text-anchor="middle" x="689" y="-280.4" font-family="Times,serif" font-size="14.00" fill="#ffffff">车载触摸屏</text>
</g>
<!-- screen&#45;&gt;system -->
<g id="edge3" class="edge">
<title>screen&#45;&gt;system</title>
<path fill="none" stroke="#000000" d="M659.3072,-266.4157C637.0218,-252.7679 606.3293,-233.9713 582.2128,-219.2021"/>
<polygon fill="#000000" stroke="#000000" points="584.0089,-216.1978 573.6531,-213.96 580.3531,-222.1674 584.0089,-216.1978"/>
<text text-anchor="middle" x="640.0803" y="-236" font-family="Times,serif" font-size="14.00" fill="#000000">本地</text>
</g>
<!-- mobile -->
<g id="node15" class="node">
<title>mobile</title>
<polygon fill="#add8e6" stroke="transparent" points="837.783,-302.6 772.217,-302.6 772.217,-266.6 837.783,-266.6 837.783,-302.6"/>
<text text-anchor="middle" x="805" y="-280.4" font-family="Times,serif" font-size="14.00" fill="#ffffff">移动端</text>
</g>
<!-- mobile&#45;&gt;system -->
<g id="edge4" class="edge">
<title>mobile&#45;&gt;system</title>
<path fill="none" stroke="#000000" d="M772.1014,-270.1608C769.0393,-268.9197 765.9712,-267.7142 763,-266.6 713.9556,-248.2074 657.7163,-230.0871 614.5098,-216.7828"/>
<polygon fill="#000000" stroke="#000000" points="615.5258,-213.4335 604.9391,-213.8487 613.474,-220.1261 615.5258,-213.4335"/>
<text text-anchor="middle" x="736.2181" y="-236" font-family="Times,serif" font-size="14.00" fill="#000000">Wi&#45;Fi/4G</text>
</g>
</g>
</svg>
