<?xml version="1.0" encoding="UTF-8" standalone="no"?>
<!DOCTYPE svg PUBLIC "-//W3C//DTD SVG 1.1//EN"
 "http://www.w3.org/Graphics/SVG/1.1/DTD/svg11.dtd">
<!-- Generated by graphviz version 2.40.1 (20161225.0304)
 -->
<!-- Title: G Pages: 1 -->
<svg width="496pt" height="632pt"
 viewBox="0.00 0.00 496.22 632.20" xmlns="http://www.w3.org/2000/svg" xmlns:xlink="http://www.w3.org/1999/xlink">
<g id="graph0" class="graph" transform="scale(1 1) rotate(0) translate(4 628.2)">
<title>G</title>
<polygon fill="#ffffff" stroke="transparent" points="-4,4 -4,-628.2 492.2182,-628.2 492.2182,4 -4,4"/>
<!-- a -->
<g id="node1" class="node">
<title>a</title>
<polygon fill="none" stroke="#000000" points="75.72,-346.8 -.241,-346.8 -.241,-310.8 75.72,-310.8 75.72,-346.8"/>
<text text-anchor="middle" x="37.7395" y="-324.6" font-family="Times,serif" font-size="14.00" fill="#000000">CAN总线</text>
</g>
<!-- b -->
<g id="node2" class="node">
<title>b</title>
<polygon fill="none" stroke="#000000" points="306.8393,-624.1002 161.1615,-624.1002 161.1615,-515.4998 306.8393,-515.4998 306.8393,-624.1002"/>
<text text-anchor="start" x="169.081" y="-607.6" font-family="Times,serif" font-size="14.00" fill="#000000">VCU CAN0</text>
<text text-anchor="start" x="169.081" y="-590.8" font-family="Times,serif" font-size="14.00" fill="#000000">&#45; 油门</text>
<text text-anchor="start" x="169.081" y="-574" font-family="Times,serif" font-size="14.00" fill="#000000">&#45; 刹车</text>
<text text-anchor="start" x="169.081" y="-557.2" font-family="Times,serif" font-size="14.00" fill="#000000">&#45; 给定转矩</text>
<text text-anchor="start" x="169.081" y="-540.4" font-family="Times,serif" font-size="14.00" fill="#000000">&#45; 安全回路状态(16种)</text>
<text text-anchor="start" x="169.081" y="-523.6" font-family="Times,serif" font-size="14.00" fill="#000000">&#45; 转发电控信息</text>
</g>
<!-- a&#45;&gt;b -->
<g id="edge1" class="edge">
<title>a&#45;&gt;b</title>
<path fill="none" stroke="#000000" d="M25.2182,-346.9142C25.2182,-402.9615 25.2182,-569.8 25.2182,-569.8 25.2182,-569.8 150.9785,-569.8 150.9785,-569.8"/>
<polygon fill="#000000" stroke="#000000" points="150.9786,-573.3001 160.9785,-569.8 150.9785,-566.3001 150.9786,-573.3001"/>
</g>
<!-- c -->
<g id="node3" class="node">
<title>c</title>
<polygon fill="none" stroke="#000000" points="315.7286,-497.2014 152.2722,-497.2014 152.2722,-438.3986 315.7286,-438.3986 315.7286,-497.2014"/>
<text text-anchor="start" x="160.1364" y="-480.4" font-family="Times,serif" font-size="14.00" fill="#000000">VCU CAN1</text>
<text text-anchor="start" x="160.1364" y="-463.6" font-family="Times,serif" font-size="14.00" fill="#000000">(通道以实际接线为准)</text>
<text text-anchor="start" x="160.1364" y="-446.8" font-family="Times,serif" font-size="14.00" fill="#000000">&#45; 给定转矩</text>
</g>
<!-- a&#45;&gt;c -->
<g id="edge2" class="edge">
<title>a&#45;&gt;c</title>
<path fill="none" stroke="#000000" d="M75.5925,-337.8C113.4905,-337.8 166.2182,-337.8 166.2182,-337.8 166.2182,-337.8 166.2182,-428.301 166.2182,-428.301"/>
<polygon fill="#000000" stroke="#000000" points="162.7183,-428.301 166.2182,-438.301 169.7183,-428.301 162.7183,-428.301"/>
</g>
<!-- d -->
<g id="node4" class="node">
<title>d</title>
<polygon fill="none" stroke="#000000" points="261.0004,-420.8 207.0004,-420.8 207.0004,-384.8 261.0004,-384.8 261.0004,-420.8"/>
<text text-anchor="middle" x="234.0004" y="-398.6" font-family="Times,serif" font-size="14.00" fill="#000000">k60</text>
</g>
<!-- a&#45;&gt;d -->
<g id="edge3" class="edge">
<title>a&#45;&gt;d</title>
<path fill="none" stroke="#000000" d="M51.2182,-347.0921C51.2182,-369.0057 51.2182,-402.8 51.2182,-402.8 51.2182,-402.8 196.6361,-402.8 196.6361,-402.8"/>
<polygon fill="#000000" stroke="#000000" points="196.6361,-406.3001 206.6361,-402.8 196.636,-399.3001 196.6361,-406.3001"/>
</g>
<!-- e -->
<g id="node5" class="node">
<title>e</title>
<polygon fill="none" stroke="#000000" points="287.7665,-366.5003 180.2343,-366.5003 180.2343,-291.0997 287.7665,-291.0997 287.7665,-366.5003"/>
<text text-anchor="start" x="188.1175" y="-349.8" font-family="Times,serif" font-size="14.00" fill="#000000">转角传感器</text>
<text text-anchor="start" x="188.1175" y="-333" font-family="Times,serif" font-size="14.00" fill="#000000">&#45; 转角</text>
<text text-anchor="start" x="188.1175" y="-316.2" font-family="Times,serif" font-size="14.00" fill="#000000">&#45; 转速</text>
<text text-anchor="start" x="188.1175" y="-299.4" font-family="Times,serif" font-size="14.00" fill="#000000">&#45; 是否有效</text>
</g>
<!-- a&#45;&gt;e -->
<g id="edge7" class="edge">
<title>a&#45;&gt;e</title>
<path fill="none" stroke="#000000" d="M75.5806,-328.8C75.5806,-328.8 169.9492,-328.8 169.9492,-328.8"/>
<polygon fill="#000000" stroke="#000000" points="169.9493,-332.3001 179.9492,-328.8 169.9492,-325.3001 169.9493,-332.3001"/>
</g>
<!-- f -->
<g id="node6" class="node">
<title>f</title>
<polygon fill="none" stroke="#000000" points="261.0004,-272.8 207.0004,-272.8 207.0004,-236.8 261.0004,-236.8 261.0004,-272.8"/>
<text text-anchor="middle" x="234.0004" y="-250.6" font-family="Times,serif" font-size="14.00" fill="#000000">树莓派</text>
</g>
<!-- a&#45;&gt;f -->
<g id="edge8" class="edge">
<title>a&#45;&gt;f</title>
<path fill="none" stroke="#000000" d="M51.2182,-310.5079C51.2182,-288.5943 51.2182,-254.8 51.2182,-254.8 51.2182,-254.8 196.6361,-254.8 196.6361,-254.8"/>
<polygon fill="#000000" stroke="#000000" points="196.6361,-258.3001 206.6361,-254.8 196.636,-251.3001 196.6361,-258.3001"/>
</g>
<!-- g -->
<g id="node7" class="node">
<title>g</title>
<polygon fill="none" stroke="#000000" points="356.5432,-218.5003 111.4576,-218.5003 111.4576,-143.0997 356.5432,-143.0997 356.5432,-218.5003"/>
<text text-anchor="start" x="119.479" y="-201.8" font-family="Times,serif" font-size="14.00" fill="#000000">BMS</text>
<text text-anchor="start" x="119.479" y="-185" font-family="Times,serif" font-size="14.00" fill="#000000">&#45; 电池最高温度</text>
<text text-anchor="start" x="119.479" y="-168.2" font-family="Times,serif" font-size="14.00" fill="#000000">&#45; 电流(数据不准, 可能会用到电控数据)</text>
<text text-anchor="start" x="119.479" y="-151.4" font-family="Times,serif" font-size="14.00" fill="#000000">&#45; 总电压</text>
</g>
<!-- a&#45;&gt;g -->
<g id="edge11" class="edge">
<title>a&#45;&gt;g</title>
<path fill="none" stroke="#000000" d="M75.6232,-319.8C101.9079,-319.8 132.2182,-319.8 132.2182,-319.8 132.2182,-319.8 132.2182,-228.4154 132.2182,-228.4154"/>
<polygon fill="#000000" stroke="#000000" points="135.7183,-228.4154 132.2182,-218.4154 128.7183,-228.4154 135.7183,-228.4154"/>
</g>
<!-- h -->
<g id="node8" class="node">
<title>h</title>
<polygon fill="none" stroke="#000000" points="278.8429,-125.4006 189.1579,-125.4006 189.1579,-.1994 278.8429,-.1994 278.8429,-125.4006"/>
<text text-anchor="start" x="197.3295" y="-109" font-family="Times,serif" font-size="14.00" fill="#000000">电控</text>
<text text-anchor="start" x="197.3295" y="-92.2" font-family="Times,serif" font-size="14.00" fill="#000000">&#45; 电机温度</text>
<text text-anchor="start" x="197.3295" y="-75.4" font-family="Times,serif" font-size="14.00" fill="#000000">&#45; 电控温度</text>
<text text-anchor="start" x="197.3295" y="-58.6" font-family="Times,serif" font-size="14.00" fill="#000000">&#45; 转速</text>
<text text-anchor="start" x="197.3295" y="-41.8" font-family="Times,serif" font-size="14.00" fill="#000000">&#45; 控制器状态</text>
<text text-anchor="start" x="197.3295" y="-25" font-family="Times,serif" font-size="14.00" fill="#000000"> &#160;&#160;&#45; byte6</text>
<text text-anchor="start" x="197.3295" y="-8.2" font-family="Times,serif" font-size="14.00" fill="#000000"> &#160;&#160;&#45; byte7</text>
</g>
<!-- a&#45;&gt;h -->
<g id="edge12" class="edge">
<title>a&#45;&gt;h</title>
<path fill="none" stroke="#000000" d="M25.2182,-310.5167C25.2182,-250.4198 25.2182,-62.8 25.2182,-62.8 25.2182,-62.8 179.2114,-62.8 179.2114,-62.8"/>
<polygon fill="#000000" stroke="#000000" points="179.2114,-66.3001 189.2114,-62.8 179.2113,-59.3001 179.2114,-66.3001"/>
</g>
<!-- i -->
<g id="node9" class="node">
<title>i</title>
<polygon fill="none" stroke="#000000" points="467.37,-474.8 413.37,-474.8 413.37,-438.8 467.37,-438.8 467.37,-474.8"/>
<text text-anchor="middle" x="440.37" y="-452.6" font-family="Times,serif" font-size="14.00" fill="#000000">SD卡</text>
</g>
<!-- d&#45;&gt;i -->
<g id="edge4" class="edge">
<title>d&#45;&gt;i</title>
<path fill="none" stroke="#000000" d="M261.0275,-411.8C308.5788,-411.8 402.2182,-411.8 402.2182,-411.8 402.2182,-411.8 402.2182,-456.8 402.2182,-456.8 402.2182,-456.8 403.3013,-456.8 403.3013,-456.8"/>
<polygon fill="#000000" stroke="#000000" points="403.049,-460.3001 413.0489,-456.8 403.0489,-453.3001 403.049,-460.3001"/>
</g>
<!-- j -->
<g id="node10" class="node">
<title>j</title>
<polygon fill="none" stroke="#000000" points="474.4599,-420.8 406.2801,-420.8 406.2801,-384.8 474.4599,-384.8 474.4599,-420.8"/>
<text text-anchor="middle" x="440.37" y="-398.6" font-family="Times,serif" font-size="14.00" fill="#000000">无线模块</text>
</g>
<!-- d&#45;&gt;j -->
<g id="edge5" class="edge">
<title>d&#45;&gt;j</title>
<path fill="none" stroke="#000000" d="M261.4047,-402.8C261.4047,-402.8 395.97,-402.8 395.97,-402.8"/>
<polygon fill="#000000" stroke="#000000" points="395.97,-406.3001 405.97,-402.8 395.9699,-399.3001 395.97,-406.3001"/>
</g>
<!-- n -->
<g id="node14" class="node">
<title>n</title>
<polygon fill="none" stroke="#000000" points="488.0669,-367.2014 392.6731,-367.2014 392.6731,-308.3986 488.0669,-308.3986 488.0669,-367.2014"/>
<text text-anchor="start" x="400.5218" y="-350.4" font-family="Times,serif" font-size="14.00" fill="#000000">姿态传感器</text>
<text text-anchor="start" x="400.5218" y="-333.6" font-family="Times,serif" font-size="14.00" fill="#000000">&#45; 横向加速度</text>
<text text-anchor="start" x="400.5218" y="-316.8" font-family="Times,serif" font-size="14.00" fill="#000000">&#45; 纵向加速度</text>
</g>
<!-- d&#45;&gt;n -->
<g id="edge6" class="edge">
<title>d&#45;&gt;n</title>
<path fill="none" stroke="#000000" d="M261.3194,-393.8C307.7835,-393.8 397.2182,-393.8 397.2182,-393.8 397.2182,-393.8 397.2182,-377.1121 397.2182,-377.1121"/>
<polygon fill="#000000" stroke="#000000" points="400.7183,-377.112 397.2182,-367.1121 393.7183,-377.1121 400.7183,-377.112"/>
</g>
<!-- l -->
<g id="node12" class="node">
<title>l</title>
<polygon fill="none" stroke="#000000" points="472.5836,-281.8 408.1564,-281.8 408.1564,-245.8 472.5836,-245.8 472.5836,-281.8"/>
<text text-anchor="middle" x="440.37" y="-259.6" font-family="Times,serif" font-size="14.00" fill="#000000">触摸屏</text>
</g>
<!-- f&#45;&gt;l -->
<g id="edge9" class="edge">
<title>f&#45;&gt;l</title>
<path fill="none" stroke="#000000" d="M261.4047,-259.3C261.4047,-259.3 398.0946,-259.3 398.0946,-259.3"/>
<polygon fill="#000000" stroke="#000000" points="398.0947,-262.8001 408.0946,-259.3 398.0946,-255.8001 398.0947,-262.8001"/>
</g>
<!-- m -->
<g id="node13" class="node">
<title>m</title>
<polygon fill="none" stroke="#000000" points="467.37,-227.8 413.37,-227.8 413.37,-191.8 467.37,-191.8 467.37,-227.8"/>
<text text-anchor="middle" x="440.37" y="-205.6" font-family="Times,serif" font-size="14.00" fill="#000000">网站</text>
</g>
<!-- f&#45;&gt;m -->
<g id="edge10" class="edge">
<title>f&#45;&gt;m</title>
<path fill="none" stroke="#000000" d="M261.0905,-241.3C317.2594,-241.3 441.2182,-241.3 441.2182,-241.3 441.2182,-241.3 441.2182,-238.1237 441.2182,-238.1237"/>
<polygon fill="#000000" stroke="#000000" points="444.7183,-238.1236 441.2182,-228.1237 437.7183,-238.1237 444.7183,-238.1236"/>
</g>
<!-- k -->
<g id="node11" class="node">
<title>k</title>
<polygon fill="none" stroke="#000000" points="467.37,-80.8 413.37,-80.8 413.37,-44.8 467.37,-44.8 467.37,-80.8"/>
<text text-anchor="middle" x="440.37" y="-58.6" font-family="Times,serif" font-size="14.00" fill="#000000">电机</text>
</g>
<!-- h&#45;&gt;k -->
<g id="edge13" class="edge">
<title>h&#45;&gt;k</title>
<path fill="none" stroke="#000000" d="M278.7795,-62.8C278.7795,-62.8 403.361,-62.8 403.361,-62.8"/>
<polygon fill="#000000" stroke="#000000" points="403.361,-66.3001 413.361,-62.8 403.3609,-59.3001 403.361,-66.3001"/>
</g>
</g>
</svg>
