<?xml version="1.0" encoding="UTF-8" standalone="no"?>
<!DOCTYPE svg PUBLIC "-//W3C//DTD SVG 1.1//EN"
 "http://www.w3.org/Graphics/SVG/1.1/DTD/svg11.dtd">
<!-- Generated by graphviz version 2.40.1 (20161225.0304)
 -->
<!-- Title: G Pages: 1 -->
<svg width="418pt" height="632pt"
 viewBox="0.00 0.00 417.65 632.20" xmlns="http://www.w3.org/2000/svg" xmlns:xlink="http://www.w3.org/1999/xlink">
<g id="graph0" class="graph" transform="scale(1 1) rotate(0) translate(4 628.2)">
<title>G</title>
<polygon fill="#ffffff" stroke="transparent" points="-4,4 -4,-628.2 413.653,-628.2 413.653,4 -4,4"/>
<!-- a -->
<g id="node1" class="node">
<title>a</title>
<polygon fill="none" stroke="#000000" points="75.72,-346.8 -.241,-346.8 -.241,-310.8 75.72,-310.8 75.72,-346.8"/>
<text text-anchor="middle" x="37.7395" y="-324.6" font-family="Times,serif" font-size="14.00" fill="#000000">CAN总线</text>
</g>
<!-- b -->
<g id="node2" class="node">
<title>b</title>
<polygon fill="none" stroke="#000000" points="267.5567,-624.1002 121.8789,-624.1002 121.8789,-515.4998 267.5567,-515.4998 267.5567,-624.1002"/>
<text text-anchor="start" x="129.7984" y="-607.6" font-family="Times,serif" font-size="14.00" fill="#000000">VCU CAN0</text>
<text text-anchor="start" x="129.7984" y="-590.8" font-family="Times,serif" font-size="14.00" fill="#000000">&#45; 油门</text>
<text text-anchor="start" x="129.7984" y="-574" font-family="Times,serif" font-size="14.00" fill="#000000">&#45; 刹车</text>
<text text-anchor="start" x="129.7984" y="-557.2" font-family="Times,serif" font-size="14.00" fill="#000000">&#45; 给定转矩</text>
<text text-anchor="start" x="129.7984" y="-540.4" font-family="Times,serif" font-size="14.00" fill="#000000">&#45; 安全回路状态(16种)</text>
<text text-anchor="start" x="129.7984" y="-523.6" font-family="Times,serif" font-size="14.00" fill="#000000">&#45; 转发电控信息</text>
</g>
<!-- a&#45;&gt;b -->
<g id="edge1" class="edge">
<title>a&#45;&gt;b</title>
<path fill="none" stroke="#000000" d="M25.653,-346.9142C25.653,-402.9615 25.653,-569.8 25.653,-569.8 25.653,-569.8 111.5468,-569.8 111.5468,-569.8"/>
<polygon fill="#000000" stroke="#000000" points="111.5468,-573.3001 121.5468,-569.8 111.5468,-566.3001 111.5468,-573.3001"/>
</g>
<!-- c -->
<g id="node3" class="node">
<title>c</title>
<polygon fill="none" stroke="#000000" points="268.5167,-497.2014 120.9189,-497.2014 120.9189,-438.3986 268.5167,-438.3986 268.5167,-497.2014"/>
<text text-anchor="start" x="128.8184" y="-480.4" font-family="Times,serif" font-size="14.00" fill="#000000">VCU CAN1</text>
<text text-anchor="start" x="128.8184" y="-463.6" font-family="Times,serif" font-size="14.00" fill="#000000">(通道以实际**为准)</text>
<text text-anchor="middle" x="194.7178" y="-446.8" font-family="Times,serif" font-size="14.00" fill="#000000">&#45; 给定转矩</text>
</g>
<!-- a&#45;&gt;c -->
<g id="edge2" class="edge">
<title>a&#45;&gt;c</title>
<path fill="none" stroke="#000000" d="M75.667,-337.8C101.7315,-337.8 131.653,-337.8 131.653,-337.8 131.653,-337.8 131.653,-428.301 131.653,-428.301"/>
<polygon fill="#000000" stroke="#000000" points="128.1531,-428.301 131.653,-438.301 135.1531,-428.301 128.1531,-428.301"/>
</g>
<!-- d -->
<g id="node4" class="node">
<title>d</title>
<polygon fill="none" stroke="#000000" points="221.7178,-420.8 167.7178,-420.8 167.7178,-384.8 221.7178,-384.8 221.7178,-420.8"/>
<text text-anchor="middle" x="194.7178" y="-398.6" font-family="Times,serif" font-size="14.00" fill="#000000">k60</text>
</g>
<!-- a&#45;&gt;d -->
<g id="edge3" class="edge">
<title>a&#45;&gt;d</title>
<path fill="none" stroke="#000000" d="M50.653,-347.0921C50.653,-369.0057 50.653,-402.8 50.653,-402.8 50.653,-402.8 157.6203,-402.8 157.6203,-402.8"/>
<polygon fill="#000000" stroke="#000000" points="157.6203,-406.3001 167.6203,-402.8 157.6203,-399.3001 157.6203,-406.3001"/>
</g>
<!-- e -->
<g id="node5" class="node">
<title>e</title>
<polygon fill="none" stroke="#000000" points="248.4839,-366.5003 140.9517,-366.5003 140.9517,-291.0997 248.4839,-291.0997 248.4839,-366.5003"/>
<text text-anchor="start" x="148.8349" y="-349.8" font-family="Times,serif" font-size="14.00" fill="#000000">转角传感器</text>
<text text-anchor="start" x="148.8349" y="-333" font-family="Times,serif" font-size="14.00" fill="#000000">&#45; 转角</text>
<text text-anchor="start" x="148.8349" y="-316.2" font-family="Times,serif" font-size="14.00" fill="#000000">&#45; 转速</text>
<text text-anchor="start" x="148.8349" y="-299.4" font-family="Times,serif" font-size="14.00" fill="#000000">&#45; 是否有效</text>
</g>
<!-- a&#45;&gt;e -->
<g id="edge7" class="edge">
<title>a&#45;&gt;e</title>
<path fill="none" stroke="#000000" d="M75.7396,-328.8C75.7396,-328.8 130.7531,-328.8 130.7531,-328.8"/>
<polygon fill="#000000" stroke="#000000" points="130.7532,-332.3001 140.7531,-328.8 130.7531,-325.3001 130.7532,-332.3001"/>
</g>
<!-- f -->
<g id="node6" class="node">
<title>f</title>
<polygon fill="none" stroke="#000000" points="221.7178,-272.8 167.7178,-272.8 167.7178,-236.8 221.7178,-236.8 221.7178,-272.8"/>
<text text-anchor="middle" x="194.7178" y="-250.6" font-family="Times,serif" font-size="14.00" fill="#000000">树莓派</text>
</g>
<!-- a&#45;&gt;f -->
<g id="edge8" class="edge">
<title>a&#45;&gt;f</title>
<path fill="none" stroke="#000000" d="M50.653,-310.5079C50.653,-288.5943 50.653,-254.8 50.653,-254.8 50.653,-254.8 157.6203,-254.8 157.6203,-254.8"/>
<polygon fill="#000000" stroke="#000000" points="157.6203,-258.3001 167.6203,-254.8 157.6203,-251.3001 157.6203,-258.3001"/>
</g>
<!-- g -->
<g id="node7" class="node">
<title>g</title>
<polygon fill="none" stroke="#000000" points="278.1961,-218.5003 111.2395,-218.5003 111.2395,-143.0997 278.1961,-143.0997 278.1961,-218.5003"/>
<text text-anchor="start" x="119.479" y="-201.8" font-family="Times,serif" font-size="14.00" fill="#000000">BMS</text>
<text text-anchor="start" x="119.479" y="-185" font-family="Times,serif" font-size="14.00" fill="#000000">&#45; 电池最高温度</text>
<text text-anchor="start" x="119.479" y="-168.2" font-family="Times,serif" font-size="14.00" fill="#000000">&#45; 电流(**不准, 可能会*)</text>
<text text-anchor="start" x="119.479" y="-151.4" font-family="Times,serif" font-size="14.00" fill="#000000">&#45; 总电压</text>
</g>
<!-- a&#45;&gt;g -->
<g id="edge11" class="edge">
<title>a&#45;&gt;g</title>
<path fill="none" stroke="#000000" d="M75.8094,-319.8C95.989,-319.8 116.653,-319.8 116.653,-319.8 116.653,-319.8 116.653,-228.4154 116.653,-228.4154"/>
<polygon fill="#000000" stroke="#000000" points="120.1531,-228.4154 116.653,-218.4154 113.1531,-228.4154 120.1531,-228.4154"/>
</g>
<!-- h -->
<g id="node8" class="node">
<title>h</title>
<polygon fill="none" stroke="#000000" points="239.5603,-125.4006 149.8753,-125.4006 149.8753,-.1994 239.5603,-.1994 239.5603,-125.4006"/>
<text text-anchor="start" x="158.0469" y="-109" font-family="Times,serif" font-size="14.00" fill="#000000">电控</text>
<text text-anchor="start" x="158.0469" y="-92.2" font-family="Times,serif" font-size="14.00" fill="#000000">&#45; 电机温度</text>
<text text-anchor="start" x="158.0469" y="-75.4" font-family="Times,serif" font-size="14.00" fill="#000000">&#45; 电控温度</text>
<text text-anchor="start" x="158.0469" y="-58.6" font-family="Times,serif" font-size="14.00" fill="#000000">&#45; 转速</text>
<text text-anchor="start" x="158.0469" y="-41.8" font-family="Times,serif" font-size="14.00" fill="#000000">&#45; 控制器状态</text>
<text text-anchor="start" x="158.0469" y="-25" font-family="Times,serif" font-size="14.00" fill="#000000"> &#160;&#160;&#45; byte6</text>
<text text-anchor="start" x="158.0469" y="-8.2" font-family="Times,serif" font-size="14.00" fill="#000000"> &#160;&#160;&#45; byte7</text>
</g>
<!-- a&#45;&gt;h -->
<g id="edge12" class="edge">
<title>a&#45;&gt;h</title>
<path fill="none" stroke="#000000" d="M25.653,-310.5167C25.653,-250.4198 25.653,-62.8 25.653,-62.8 25.653,-62.8 139.8554,-62.8 139.8554,-62.8"/>
<polygon fill="#000000" stroke="#000000" points="139.8554,-66.3001 149.8554,-62.8 139.8554,-59.3001 139.8554,-66.3001"/>
</g>
<!-- i -->
<g id="node9" class="node">
<title>i</title>
<polygon fill="none" stroke="#000000" points="388.8048,-474.8 334.8048,-474.8 334.8048,-438.8 388.8048,-438.8 388.8048,-474.8"/>
<text text-anchor="middle" x="361.8048" y="-452.6" font-family="Times,serif" font-size="14.00" fill="#000000">SD卡</text>
</g>
<!-- d&#45;&gt;i -->
<g id="edge4" class="edge">
<title>d&#45;&gt;i</title>
<path fill="none" stroke="#000000" d="M221.8828,-411.8C244.716,-411.8 273.653,-411.8 273.653,-411.8 273.653,-411.8 273.653,-456.8 273.653,-456.8 273.653,-456.8 324.3962,-456.8 324.3962,-456.8"/>
<polygon fill="#000000" stroke="#000000" points="324.3963,-460.3001 334.3962,-456.8 324.3962,-453.3001 324.3963,-460.3001"/>
</g>
<!-- j -->
<g id="node10" class="node">
<title>j</title>
<polygon fill="none" stroke="#000000" points="395.8947,-420.8 327.7149,-420.8 327.7149,-384.8 395.8947,-384.8 395.8947,-420.8"/>
<text text-anchor="middle" x="361.8048" y="-398.6" font-family="Times,serif" font-size="14.00" fill="#000000">无线模块</text>
</g>
<!-- d&#45;&gt;j -->
<g id="edge5" class="edge">
<title>d&#45;&gt;j</title>
<path fill="none" stroke="#000000" d="M221.9351,-402.8C221.9351,-402.8 317.6585,-402.8 317.6585,-402.8"/>
<polygon fill="#000000" stroke="#000000" points="317.6585,-406.3001 327.6585,-402.8 317.6584,-399.3001 317.6585,-406.3001"/>
</g>
<!-- n -->
<g id="node14" class="node">
<title>n</title>
<polygon fill="none" stroke="#000000" points="409.5017,-367.2014 314.1079,-367.2014 314.1079,-308.3986 409.5017,-308.3986 409.5017,-367.2014"/>
<text text-anchor="start" x="321.9566" y="-350.4" font-family="Times,serif" font-size="14.00" fill="#000000">姿态传感器</text>
<text text-anchor="start" x="321.9566" y="-333.6" font-family="Times,serif" font-size="14.00" fill="#000000">&#45; 横向加速度</text>
<text text-anchor="start" x="321.9566" y="-316.8" font-family="Times,serif" font-size="14.00" fill="#000000">&#45; 纵向加速度</text>
</g>
<!-- d&#45;&gt;n -->
<g id="edge6" class="edge">
<title>d&#45;&gt;n</title>
<path fill="none" stroke="#000000" d="M221.9486,-393.8C259.2463,-393.8 321.653,-393.8 321.653,-393.8 321.653,-393.8 321.653,-377.1121 321.653,-377.1121"/>
<polygon fill="#000000" stroke="#000000" points="325.1531,-377.112 321.653,-367.1121 318.1531,-377.1121 325.1531,-377.112"/>
</g>
<!-- l -->
<g id="node12" class="node">
<title>l</title>
<polygon fill="none" stroke="#000000" points="394.0184,-281.8 329.5912,-281.8 329.5912,-245.8 394.0184,-245.8 394.0184,-281.8"/>
<text text-anchor="middle" x="361.8048" y="-259.6" font-family="Times,serif" font-size="14.00" fill="#000000">触摸屏</text>
</g>
<!-- f&#45;&gt;l -->
<g id="edge9" class="edge">
<title>f&#45;&gt;l</title>
<path fill="none" stroke="#000000" d="M221.9351,-259.3C221.9351,-259.3 319.4448,-259.3 319.4448,-259.3"/>
<polygon fill="#000000" stroke="#000000" points="319.4449,-262.8001 329.4448,-259.3 319.4448,-255.8001 319.4449,-262.8001"/>
</g>
<!-- m -->
<g id="node13" class="node">
<title>m</title>
<polygon fill="none" stroke="#000000" points="388.8048,-227.8 334.8048,-227.8 334.8048,-191.8 388.8048,-191.8 388.8048,-227.8"/>
<text text-anchor="middle" x="361.8048" y="-205.6" font-family="Times,serif" font-size="14.00" fill="#000000">网站</text>
</g>
<!-- f&#45;&gt;m -->
<g id="edge10" class="edge">
<title>f&#45;&gt;m</title>
<path fill="none" stroke="#000000" d="M222.0733,-241.3C269.6597,-241.3 362.653,-241.3 362.653,-241.3 362.653,-241.3 362.653,-238.1237 362.653,-238.1237"/>
<polygon fill="#000000" stroke="#000000" points="366.1531,-238.1236 362.653,-228.1237 359.1531,-238.1237 366.1531,-238.1236"/>
</g>
<!-- k -->
<g id="node11" class="node">
<title>k</title>
<polygon fill="none" stroke="#000000" points="388.8048,-80.8 334.8048,-80.8 334.8048,-44.8 388.8048,-44.8 388.8048,-80.8"/>
<text text-anchor="middle" x="361.8048" y="-58.6" font-family="Times,serif" font-size="14.00" fill="#000000">电机</text>
</g>
<!-- h&#45;&gt;k -->
<g id="edge13" class="edge">
<title>h&#45;&gt;k</title>
<path fill="none" stroke="#000000" d="M239.494,-62.8C239.494,-62.8 324.6952,-62.8 324.6952,-62.8"/>
<polygon fill="#000000" stroke="#000000" points="324.6952,-66.3001 334.6952,-62.8 324.6952,-59.3001 324.6952,-66.3001"/>
</g>
</g>
</svg>
